HIERARCHY
ROOT Hips
{
     OFFSET 8.02635 95.68680 -10.31640
     CHANNELS 6 Xposition Yposition Zposition Zrotation Xrotation Yrotation
     JOINT Spine
     {
          OFFSET 0.00000 11.89050 0.00000
          CHANNELS 3 Zrotation Xrotation Yrotation
          JOINT Spine1
          {
               OFFSET 0.00000 25.65740 0.12766
               CHANNELS 3 Zrotation Xrotation Yrotation
               JOINT HEad
               {
                    OFFSET 0.00000 8.73416 0.01134
                    CHANNELS 3 Zrotation Xrotation Yrotation
                    End Site
                    {
                         OFFSET -0.29000 12.77420 2.51395
                    }
               }
               JOINT LeftShoulder1
               {
                    OFFSET 8.99000 -0.36225 -0.22000
                    CHANNELS 3 Zrotation Xrotation Yrotation
                    JOINT LeftArm
                    {
                         OFFSET 10.28270 -0.00338 0.32212
                         CHANNELS 3 Zrotation Xrotation Yrotation
                         JOINT LeftForeArm
                         {
                              OFFSET 32.76690 0.09914 -1.42434
                              CHANNELS 3 Zrotation Xrotation Yrotation
                              JOINT LeftHand
                              {
                                   OFFSET 27.56430 0.08536 1.02216
                                   CHANNELS 3 Zrotation Xrotation Yrotation
                                   End Site
                                   {
                                        OFFSET 16.74430 -0.60000 1.50291
                                   }
                              }
                         }
                    }
               }
               JOINT RightShoulder
               {
                    OFFSET -8.99000 -0.36225 -0.22000
                    CHANNELS 3 Zrotation Xrotation Yrotation
                    JOINT RightArm
                    {
                         OFFSET -10.28270 -0.00338 0.32212
                         CHANNELS 3 Zrotation Xrotation Yrotation
                         JOINT RightForeArm
                         {
                              OFFSET -32.89710 0.09914 -1.42434
                              CHANNELS 3 Zrotation Xrotation Yrotation
                              JOINT RightHand
                              {
                                   OFFSET -27.49210 0.08536 1.02216
                                   CHANNELS 3 Zrotation Xrotation Yrotation
                                   End Site
                                   {
                                        OFFSET -16.63120 -0.60000 1.50291
                                   }
                              }
                         }
                    }
               }
          }
     }
     JOINT LeftUpLeg
     {
          OFFSET 8.94580 -8.66707 0.10165
          CHANNELS 3 Zrotation Xrotation Yrotation
          JOINT LeftLeg
          {
               OFFSET 0.00000 -44.42270 1.37270
               CHANNELS 3 Zrotation Xrotation Yrotation
               JOINT LeftFoot
               {
                    OFFSET -0.25355 -42.09240 -1.46059
                    CHANNELS 3 Zrotation Xrotation Yrotation
                    JOINT LeftToes
                    {
                         OFFSET -0.04000 -4.41509 8.49910
                         CHANNELS 3 Zrotation Xrotation Yrotation
                         End Site
                         {
                              OFFSET 0.08000 -0.04745 9.77979
                         }
                    }
               }
          }
     }
     JOINT RightUpLeg
     {
          OFFSET -8.94580 -8.66707 0.10165
          CHANNELS 3 Zrotation Xrotation Yrotation
          JOINT RightLeg
          {
               OFFSET 0.00000 -44.42270 1.37270
               CHANNELS 3 Zrotation Xrotation Yrotation
               JOINT RightFoot
               {
                    OFFSET 0.25355 -42.09240 -1.46059
                    CHANNELS 3 Zrotation Xrotation Yrotation
                    JOINT RightToes
                    {
                         OFFSET 0.04000 -4.41509 8.49910
                         CHANNELS 3 Zrotation Xrotation Yrotation
                         End Site
                         {
                              OFFSET -0.08000 -0.13745 9.77979
                         }
                    }
               }
          }
     }
}
MOTION
Frames: 10
Frame Time: 0.01667
9.22815 89.22270 4.76518 -10.85310 -14.00550 -33.20210 8.69188 9.30858 -2.41710 -1.48806 20.84850 -1.47831 -5.12069 4.69310 12.08150 0.00000 0.00000 0.00000 -104.65400 -66.71600 -79.83540 -33.14940 48.57500 -78.73680 16.56820 7.53400 -12.73550 12.96540 0.63117 1.32029 82.75020 0.55888 69.92550 8.44279 31.11150 106.76000 15.67700 11.35230 5.89723 23.79100 -16.32100 -28.01930 -23.19020 20.70720 69.88800 -19.34560 -5.00892 0.46817 8.99969 9.62919 -39.63510 -20.92400 6.13023 11.67850 43.97640 25.62380 -53.71120 -42.55460 -8.05212 -0.32907 18.01110 -61.40970 24.31350 
8.96706 90.28640 3.17556 -9.85056 -14.25430 -32.61770 6.42225 9.68605 -2.12368 -1.94177 20.98310 -1.38308 -5.14477 4.31055 11.78090 0.00000 0.00000 0.00000 -104.45000 -65.77680 -79.71330 -33.01960 48.27890 -78.60700 16.63630 7.52042 -12.75850 13.56190 0.66741 1.44031 82.27730 0.36129 70.13420 8.34110 31.04230 106.93300 15.72840 11.35890 5.91146 23.72690 -14.45620 -26.66130 -24.52740 17.09170 70.68960 -15.50390 -2.36403 0.72101 9.02196 2.72736 -43.49480 -20.90570 6.23884 11.72790 42.95000 23.35880 -52.50870 -42.67470 -7.02565 0.08276 17.35650 -60.14650 24.15730 
8.71473 91.45370 1.67762 -8.74061 -14.44770 -32.09210 3.92441 10.00720 -1.77965 -2.38046 21.02830 -1.26136 -5.13054 4.00287 11.50240 0.00000 0.00000 0.00000 -104.45800 -64.89460 -79.78730 -32.89620 48.10410 -78.51060 16.73530 7.50817 -12.73910 14.15570 0.70985 1.58973 81.75270 0.15278 70.31700 8.32378 30.94910 107.01300 15.83480 11.37350 5.94649 23.49840 -12.38140 -25.27900 -25.76450 13.37560 71.44490 -11.48260 0.42924 0.79522 8.61580 -3.87192 -47.24320 -21.03830 6.48822 11.83100 41.78030 20.72110 -50.81320 -42.52220 -5.83360 0.55756 16.52770 -58.44680 24.00690 
8.47864 92.66480 0.30736 -7.57018 -14.58180 -31.66710 1.30487 10.24950 -1.38332 -2.76631 20.97550 -1.10818 -5.13767 3.80156 11.22770 0.00000 0.00000 0.00000 -104.47500 -64.00660 -79.85860 -32.73460 47.95620 -78.50010 16.87620 7.49324 -12.69430 14.60780 0.74075 1.68903 81.33680 -0.02410 70.47320 8.26748 30.84930 107.06500 15.96560 11.39560 6.01799 23.05830 -10.23170 -23.98900 -26.89250 9.83245 72.20780 -7.56511 3.31268 0.68884 7.92248 -9.53654 -50.65960 -21.35550 6.96114 12.01340 40.55230 17.57460 -48.85920 -42.44400 -4.40641 1.12304 15.77120 -56.71620 23.99350 
8.25288 93.84490 -0.89037 -6.26356 -14.81350 -31.33890 -1.57040 10.42620 -0.93540 -3.19427 20.84140 -0.93171 -5.15063 3.68880 10.95690 0.00000 0.00000 0.00000 -104.59500 -63.14310 -80.00930 -32.56120 47.87370 -78.56060 17.04530 7.47627 -12.63500 14.89170 0.75247 1.70518 81.09070 -0.14819 70.60380 8.16743 30.77580 107.09300 16.09110 11.42110 6.11423 22.22160 -8.03552 -22.94510 -27.92880 6.59287 72.98540 -3.97270 6.11793 0.42419 7.13750 -13.92690 -53.51980 -22.07400 7.72203 12.38550 39.43560 13.96210 -46.88990 -42.60200 -2.79190 1.77032 15.15470 -55.20510 24.05230 
8.18927 94.50380 -1.70466 -5.77513 -14.59460 -31.32170 -2.44633 10.35670 -0.65813 -3.25785 20.58660 -0.75317 -5.09382 3.63177 10.71010 0.00000 0.00000 0.00000 -105.00100 -62.38800 -80.40530 -32.46370 47.94760 -78.62580 17.19420 7.46326 -12.57060 15.08260 0.75404 1.68008 80.96690 -0.26471 70.69240 8.09954 30.76340 107.07100 16.17830 11.44210 6.20282 21.39750 -7.89048 -21.80840 -29.15540 7.98604 73.98270 -2.94925 7.95841 0.33731 6.43027 -17.01930 -55.60690 -22.14430 8.11294 12.40570 38.80470 11.51740 -45.17330 -42.57670 -1.61972 2.23379 14.64850 -53.94800 24.10090 
8.13703 95.09930 -2.41160 -5.34902 -14.36420 -31.35090 -3.20878 10.25260 -0.41888 -3.29081 20.30410 -0.61349 -4.90357 3.60023 10.51440 0.00000 0.00000 0.00000 -105.81400 -61.82310 -81.16440 -32.53610 48.24690 -78.62340 17.27620 7.46016 -12.50800 15.25590 0.76185 1.69344 80.91770 -0.44944 70.71840 8.10285 30.82930 107.00900 16.19910 11.45080 6.24897 20.61350 -7.72692 -20.99420 -30.23290 9.24797 74.73210 -2.21624 9.58958 0.25920 5.91017 -18.95870 -56.77850 -22.26720 8.64231 12.49450 38.29500 8.89781 -43.53130 -42.70240 -0.33504 2.75147 14.23640 -52.89360 24.16060 
8.08844 95.60830 -3.01926 -5.00743 -14.11980 -31.36500 -3.80760 10.12790 -0.25056 -3.28893 20.01750 -0.56141 -4.56540 3.55459 10.38610 0.00000 0.00000 0.00000 -107.04700 -61.48810 -82.31230 -32.81490 48.79560 -78.52840 17.29630 7.46533 -12.45270 15.44250 0.78781 1.80492 80.92680 -0.74099 70.68470 8.15786 30.95610 106.94800 16.14590 11.44550 6.24628 19.90130 -7.51367 -20.51170 -31.07990 10.22760 75.11930 -1.70481 10.86590 0.19368 5.62705 -19.91770 -57.05540 -22.37330 9.25310 12.60730 37.91090 6.28638 -42.01100 -42.84350 0.92583 3.26336 13.86820 -51.91910 24.24020 
8.03707 95.99450 -3.54290 -4.74639 -13.87180 -31.31560 -4.26595 10.00620 -0.16249 -3.24787 19.76030 -0.63165 -4.11380 3.46524 10.32220 0.00000 0.00000 0.00000 -108.60900 -61.36720 -83.77730 -33.27410 49.56360 -78.36810 17.30000 7.46983 -12.41840 15.65110 0.83173 2.00882 80.96500 -1.09848 70.61970 8.23740 31.09880 106.91200 16.02870 11.43240 6.23113 19.24640 -7.26968 -20.34560 -31.61270 10.89740 75.15150 -1.42347 11.67520 0.15350 5.56517 -20.09450 -56.66680 -22.40790 9.80902 12.68820 37.64400 4.00634 -40.67160 -42.86920 1.94533 3.67072 13.45130 -50.89290 24.24150 
7.98636 96.23710 -3.99471 -4.57981 -13.62280 -31.18060 -4.56473 9.90421 -0.16521 -3.15933 19.55810 -0.84016 -3.61495 3.35152 10.30370 0.00000 0.00000 0.00000 -110.43100 -61.43670 -85.48620 -33.88360 50.50980 -78.16770 17.31810 7.46702 -12.41920 15.88160 0.88273 2.24261 80.98680 -1.41487 70.55740 8.29511 31.19760 106.91500 15.87340 11.41900 6.23771 18.66830 -7.00798 -20.53650 -31.80590 11.21270 74.94640 -1.43614 11.94350 0.15735 5.67599 -19.66610 -55.91910 -22.25180 9.85152 12.57290 37.51330 3.02915 -39.78840 -42.51430 2.29283 3.77304 12.93740 -49.78730 24.05410 
